<svg id="svg" version="1.1" xmlns="http://www.w3.org/2000/svg" xmlns:xlink="http://www.w3.org/1999/xlink" width="400" height="416.988416988417" viewBox="0, 0, 400,416.988416988417"><g id="svgg"><path id="path0" d="M60.882 232.822 C 56.916 262.058,61.715 290.985,74.863 317.085 C 76.548 320.430,77.849 323.166,77.754 323.166 C 77.361 323.166,73.555 321.104,70.261 319.107 C 40.111 300.824,18.691 273.947,7.495 240.347 C 6.575 237.587,5.815 235.451,5.807 235.602 C 5.798 235.752,6.312 238.434,6.948 241.561 C 21.348 312.345,73.284 368.371,143.110 388.444 C 152.019 391.005,154.664 390.878,157.731 387.745 C 158.363 387.099,168.697 370.443,180.695 350.732 C 208.882 304.424,205.171 308.131,224.903 306.573 C 241.484 305.263,243.671 305.017,247.365 304.050 C 258.653 301.094,266.145 294.512,272.180 282.250 C 275.617 275.266,275.125 271.592,270.463 269.452 C 268.403 268.506,188.591 268.329,185.084 269.263 C 179.030 270.875,177.950 271.957,164.251 290.144 C 158.337 297.995,152.478 305.424,151.230 306.652 C 140.035 317.675,121.783 318.385,109.070 308.293 C 87.367 291.062,70.298 263.971,63.504 235.970 C 62.749 232.856,61.997 229.788,61.834 229.151 C 61.599 228.235,61.400 229.004,60.882 232.822 M325.437 305.938 C 316.025 309.302,315.153 321.773,324.014 326.294 C 325.565 327.085,346.626 330.879,349.503 330.885 C 361.044 330.910,364.086 313.537,353.245 309.517 C 348.079 307.602,328.009 305.019,325.437 305.938 M314.815 327.881 C 305.724 330.810,305.246 344.734,314.111 348.438 C 316.732 349.534,345.563 354.904,347.490 354.656 C 358.424 353.248,360.798 337.985,350.772 333.559 C 345.740 331.338,317.788 326.924,314.815 327.881 M305.675 350.751 C 295.983 354.208,295.783 368.227,305.377 371.612 C 307.248 372.272,327.723 375.676,329.822 375.676 C 340.984 375.676,344.392 359.819,334.346 354.625 C 331.019 352.904,308.259 349.829,305.675 350.751 M291.408 372.366 C 282.607 375.506,281.714 388.292,290.002 392.491 C 292.398 393.706,309.933 396.684,312.978 396.394 C 324.120 395.332,326.488 378.626,315.988 375.151 C 310.262 373.256,294.058 371.420,291.408 372.366 " stroke="none" fill="#fc5414" fill-rule="evenodd"></path><path id="path1" d="M184.363 11.078 C 129.250 13.965,75.515 42.639,42.289 86.892 C 38.170 92.379,38.140 92.430,40.715 89.575 C 140.288 -20.800,322.468 31.295,348.028 177.452 C 349.128 183.739,348.943 183.859,346.776 178.270 C 336.070 150.665,315.624 123.510,291.313 104.608 C 284.157 99.044,284.161 99.211,291.358 106.386 C 322.690 137.618,336.902 180.122,330.470 223.359 C 328.964 233.485,326.125 238.704,320.006 242.595 C 314.101 246.350,311.727 246.566,294.248 244.938 C 270.623 242.738,264.650 243.529,254.523 250.201 C 250.051 253.147,242.857 260.355,242.857 261.890 C 242.857 262.020,249.242 262.178,257.046 262.241 C 273.236 262.371,273.062 262.340,276.817 265.851 C 279.858 268.696,280.888 271.192,280.888 275.714 L 280.888 279.421 277.949 285.367 C 271.365 298.691,262.466 306.603,250.000 310.219 C 245.685 311.471,242.898 311.822,228.378 312.944 C 212.862 314.143,210.993 314.621,208.601 318.004 C 206.741 320.635,172.769 376.439,171.962 378.189 C 166.688 389.634,179.283 401.565,190.588 395.832 C 194.429 393.884,195.461 392.354,204.696 374.912 C 209.359 366.103,213.381 358.765,213.634 358.605 C 215.222 357.595,217.608 359.163,217.245 360.978 C 217.129 361.557,214.964 366.012,212.435 370.880 C 201.891 391.168,201.834 391.291,201.834 393.995 C 201.834 402.726,212.188 406.608,218.199 400.131 C 218.758 399.528,222.336 393.214,226.149 386.100 C 229.962 378.986,234.674 370.195,236.620 366.563 C 240.615 359.111,241.212 358.367,242.765 358.913 C 245.212 359.774,245.141 359.994,236.881 377.073 C 228.077 395.278,228.014 395.434,228.286 398.427 C 229.007 406.379,237.667 410.396,244.434 405.917 C 246.958 404.247,247.758 402.665,255.412 384.228 C 262.904 366.180,263.173 365.637,264.622 365.637 C 267.289 365.637,267.167 366.205,260.998 382.559 C 254.880 398.775,254.552 399.879,255.169 402.162 C 257.145 409.474,266.063 410.771,272.196 404.638 C 274.220 402.614,274.131 402.808,280.714 385.987 C 287.187 369.448,288.679 366.901,292.674 365.569 C 292.955 365.476,292.896 364.698,292.490 363.137 C 290.669 356.145,293.950 348.652,300.123 345.709 L 301.444 345.079 301.648 341.555 C 302.123 333.359,305.991 327.357,313.049 323.861 C 314.880 322.953,315.420 322.505,315.241 322.043 C 312.221 314.279,317.489 304.745,326.062 302.455 C 329.146 301.631,331.098 301.810,345.021 304.189 L 358.189 306.439 360.524 302.544 C 439.880 170.162,338.840 2.988,184.363 11.078 " stroke="none" fill="#1c6cd4" fill-rule="evenodd"></path><path id="path2" d="M189.291 10.702 C 189.878 10.791,190.747 10.788,191.222 10.696 C 191.696 10.605,191.216 10.532,190.154 10.535 C 189.093 10.538,188.704 10.613,189.291 10.702 M200.483 10.701 C 201.067 10.790,202.022 10.790,202.606 10.701 C 203.190 10.613,202.712 10.540,201.544 10.540 C 200.376 10.540,199.899 10.613,200.483 10.701 M172.111 30.396 C 172.805 30.482,173.848 30.480,174.428 30.392 C 175.008 30.304,174.440 30.233,173.166 30.235 C 171.892 30.238,171.417 30.310,172.111 30.396 M59.256 66.892 L 56.564 69.691 59.363 66.999 C 61.963 64.498,62.338 64.093,62.055 64.093 C 61.996 64.093,60.737 65.352,59.256 66.892 M335.907 71.549 C 335.907 71.616,336.472 72.181,337.162 72.804 L 338.417 73.938 337.283 72.683 C 336.226 71.514,335.907 71.251,335.907 71.549 M53.261 77.124 L 51.931 78.571 53.378 77.241 C 54.726 76.002,55.004 75.676,54.709 75.676 C 54.644 75.676,53.993 76.327,53.261 77.124 M297.683 81.660 C 299.692 83.678,301.423 85.328,301.529 85.328 C 301.635 85.328,300.078 83.678,298.069 81.660 C 296.061 79.643,294.330 77.992,294.224 77.992 C 294.118 77.992,295.674 79.643,297.683 81.660 M282.861 98.386 C 282.736 98.589,282.879 98.957,283.178 99.206 C 283.607 99.562,283.704 99.533,283.635 99.067 C 283.518 98.270,283.139 97.937,282.861 98.386 M291.313 106.564 C 292.142 107.413,292.908 108.108,293.014 108.108 C 293.120 108.108,292.528 107.413,291.699 106.564 C 290.869 105.714,290.104 105.019,289.998 105.019 C 289.892 105.019,290.483 105.714,291.313 106.564 M303.282 114.672 C 304.111 115.521,304.877 116.216,304.983 116.216 C 305.089 116.216,304.497 115.521,303.668 114.672 C 302.839 113.822,302.073 113.127,301.967 113.127 C 301.861 113.127,302.452 113.822,303.282 114.672 M311.969 123.359 C 312.689 124.102,313.366 124.710,313.472 124.710 C 313.578 124.710,313.076 124.102,312.355 123.359 C 311.635 122.616,310.959 122.008,310.852 122.008 C 310.746 122.008,311.249 122.616,311.969 123.359 M388.154 197.683 C 388.154 199.064,388.225 199.628,388.310 198.938 C 388.396 198.248,388.396 197.119,388.310 196.429 C 388.225 195.738,388.154 196.303,388.154 197.683 M388.166 208.494 C 388.166 210.299,388.232 211.038,388.314 210.135 C 388.395 209.233,388.395 207.756,388.314 206.853 C 388.232 205.951,388.166 206.689,388.166 208.494 M5.405 234.299 C 5.405 234.971,5.582 235.521,5.799 235.521 C 6.032 235.521,6.089 235.090,5.938 234.459 C 5.574 232.944,5.405 232.893,5.405 234.299 M59.565 244.015 C 59.565 244.971,59.640 245.362,59.732 244.884 C 59.824 244.406,59.824 243.625,59.732 243.147 C 59.640 242.669,59.565 243.060,59.565 244.015 M247.856 255.116 L 246.525 256.564 247.973 255.233 C 249.321 253.995,249.598 253.668,249.304 253.668 C 249.239 253.668,248.587 254.319,247.856 255.116 M59.570 260.811 C 59.573 261.873,59.648 262.261,59.737 261.674 C 59.825 261.087,59.823 260.219,59.731 259.744 C 59.640 259.269,59.567 259.749,59.570 260.811 M71.456 259.266 C 71.456 259.479,71.704 260.087,72.008 260.618 C 72.311 261.149,72.560 261.409,72.560 261.197 C 72.560 260.985,72.311 260.376,72.008 259.846 C 71.704 259.315,71.456 259.054,71.456 259.266 M59.935 266.023 C 59.935 266.766,60.015 267.070,60.112 266.699 C 60.209 266.327,60.209 265.719,60.112 265.347 C 60.015 264.976,59.935 265.280,59.935 266.023 M208.041 268.629 C 219.153 268.686,237.222 268.686,248.196 268.629 C 259.169 268.572,250.077 268.526,227.992 268.526 C 205.907 268.526,196.929 268.572,208.041 268.629 M176.427 274.035 L 175.097 275.483 176.544 274.152 C 177.892 272.914,178.170 272.587,177.875 272.587 C 177.810 272.587,177.159 273.238,176.427 274.035 M280.785 275.676 C 280.785 276.419,280.864 276.723,280.961 276.351 C 281.058 275.980,281.058 275.372,280.961 275.000 C 280.864 274.628,280.785 274.932,280.785 275.676 M36.293 290.927 C 37.014 291.670,37.690 292.278,37.796 292.278 C 37.902 292.278,37.400 291.670,36.680 290.927 C 35.959 290.183,35.283 289.575,35.177 289.575 C 35.071 289.575,35.573 290.183,36.293 290.927 M263.693 294.884 L 261.583 297.104 263.803 294.994 C 265.866 293.033,266.200 292.664,265.913 292.664 C 265.853 292.664,264.854 293.663,263.693 294.884 M42.085 297.104 C 43.881 298.909,45.437 300.386,45.543 300.386 C 45.649 300.386,44.267 298.909,42.471 297.104 C 40.675 295.299,39.119 293.822,39.013 293.822 C 38.907 293.822,40.289 295.299,42.085 297.104 M99.221 299.324 C 101.447 301.607,103.315 303.475,103.371 303.475 C 103.650 303.475,103.179 302.980,99.324 299.221 L 95.174 295.174 99.221 299.324 M48.263 302.896 C 48.983 303.639,49.659 304.247,49.765 304.247 C 49.872 304.247,49.369 303.639,48.649 302.896 C 47.928 302.153,47.252 301.544,47.146 301.544 C 47.040 301.544,47.542 302.153,48.263 302.896 M50.579 304.754 C 50.579 304.820,51.144 305.385,51.834 306.009 L 53.089 307.143 51.955 305.888 C 50.898 304.718,50.579 304.456,50.579 304.754 M328.089 305.292 C 328.567 305.384,329.348 305.384,329.826 305.292 C 330.304 305.200,329.913 305.124,328.958 305.124 C 328.002 305.124,327.611 305.200,328.089 305.292 M237.548 305.672 C 237.920 305.769,238.528 305.769,238.900 305.672 C 239.271 305.574,238.967 305.495,238.224 305.495 C 237.481 305.495,237.177 305.574,237.548 305.672 M232.727 306.065 C 233.207 306.157,233.902 306.153,234.271 306.057 C 234.640 305.960,234.247 305.885,233.398 305.889 C 232.548 305.893,232.246 305.972,232.727 306.065 M227.896 306.444 C 228.267 306.541,228.875 306.541,229.247 306.444 C 229.619 306.347,229.315 306.267,228.571 306.267 C 227.828 306.267,227.524 306.347,227.896 306.444 M223.074 306.837 C 223.554 306.929,224.249 306.926,224.618 306.829 C 224.988 306.732,224.595 306.657,223.745 306.661 C 222.896 306.665,222.594 306.744,223.074 306.837 M218.243 307.216 C 218.615 307.313,219.223 307.313,219.595 307.216 C 219.966 307.119,219.662 307.039,218.919 307.039 C 218.176 307.039,217.872 307.119,218.243 307.216 M356.757 311.776 C 357.477 312.519,358.153 313.127,358.260 313.127 C 358.366 313.127,357.863 312.519,357.143 311.776 C 356.422 311.033,355.746 310.425,355.640 310.425 C 355.534 310.425,356.036 311.033,356.757 311.776 M204.422 312.838 L 202.896 314.479 204.537 312.953 C 205.439 312.113,206.178 311.375,206.178 311.312 C 206.178 311.019,205.841 311.312,204.422 312.838 M307.119 328.282 L 305.985 329.537 307.239 328.403 C 307.930 327.779,308.494 327.214,308.494 327.148 C 308.494 326.850,308.176 327.112,307.119 328.282 M317.857 327.304 C 318.441 327.392,319.397 327.392,319.981 327.304 C 320.565 327.215,320.087 327.143,318.919 327.143 C 317.751 327.143,317.273 327.215,317.857 327.304 M55.019 335.135 C 56.280 336.409,57.399 337.452,57.505 337.452 C 57.611 337.452,56.666 336.409,55.405 335.135 C 54.145 333.861,53.026 332.819,52.920 332.819 C 52.814 332.819,53.758 333.861,55.019 335.135 M357.259 343.629 C 357.259 344.797,357.331 345.275,357.419 344.691 C 357.508 344.107,357.508 343.152,357.419 342.568 C 357.331 341.984,357.259 342.461,357.259 343.629 M63.900 344.015 C 64.945 345.077,65.888 345.946,65.994 345.946 C 66.100 345.946,65.332 345.077,64.286 344.015 C 63.240 342.954,62.297 342.085,62.191 342.085 C 62.085 342.085,62.854 342.954,63.900 344.015 M309.653 345.295 C 309.653 345.361,310.217 345.926,310.907 346.549 L 312.162 347.683 311.028 346.429 C 309.971 345.259,309.653 344.996,309.653 345.295 M296.118 348.938 L 294.788 350.386 296.236 349.056 C 297.583 347.817,297.861 347.490,297.566 347.490 C 297.502 347.490,296.850 348.142,296.118 348.938 M308.591 350.073 C 308.962 350.170,309.570 350.170,309.942 350.073 C 310.314 349.976,310.010 349.897,309.266 349.897 C 308.523 349.897,308.219 349.976,308.591 350.073 M336.293 355.719 C 336.293 355.786,336.858 356.350,337.548 356.974 L 338.803 358.108 337.669 356.853 C 336.612 355.684,336.293 355.421,336.293 355.719 M340.630 364.865 C 340.630 365.608,340.710 365.912,340.807 365.541 C 340.904 365.169,340.904 364.561,340.807 364.189 C 340.710 363.818,340.630 364.122,340.630 364.865 M294.310 371.706 C 294.897 371.794,295.766 371.792,296.241 371.700 C 296.716 371.609,296.236 371.536,295.174 371.539 C 294.112 371.542,293.723 371.617,294.310 371.706 M103.861 372.760 C 103.861 372.866,104.382 373.223,105.019 373.552 C 105.656 373.882,106.178 374.064,106.178 373.958 C 106.178 373.852,105.656 373.495,105.019 373.166 C 104.382 372.837,103.861 372.654,103.861 372.760 M287.041 375.000 L 285.907 376.255 287.162 375.121 C 287.852 374.497,288.417 373.932,288.417 373.866 C 288.417 373.568,288.098 373.830,287.041 375.000 M112.355 377.220 C 113.098 377.627,113.880 377.960,114.093 377.960 C 114.305 377.960,113.871 377.627,113.127 377.220 C 112.384 376.813,111.602 376.480,111.390 376.480 C 111.178 376.480,111.612 376.813,112.355 377.220 M170.360 383.784 C 170.360 384.527,170.439 384.831,170.536 384.459 C 170.634 384.088,170.634 383.480,170.536 383.108 C 170.439 382.736,170.360 383.041,170.360 383.784 M322.896 385.328 C 322.896 386.496,322.968 386.974,323.056 386.390 C 323.145 385.806,323.145 384.850,323.056 384.266 C 322.968 383.682,322.896 384.160,322.896 385.328 M150.873 390.621 C 151.354 390.713,152.048 390.709,152.418 390.613 C 152.787 390.516,152.394 390.441,151.544 390.445 C 150.695 390.449,150.393 390.528,150.873 390.621 M272.370 404.730 L 271.236 405.985 272.490 404.851 C 273.181 404.227,273.745 403.662,273.745 403.596 C 273.745 403.297,273.427 403.560,272.370 404.730 " stroke="none" fill="#ded2d5" fill-rule="evenodd"></path><path id="path3" d="M61.955 64.575 L 60.039 66.602 62.066 64.686 C 63.949 62.906,64.270 62.548,63.982 62.548 C 63.921 62.548,63.008 63.460,61.955 64.575 M328.571 64.199 C 328.571 64.257,329.918 65.604,331.564 67.191 L 334.556 70.077 331.670 67.085 C 328.989 64.306,328.571 63.916,328.571 64.199 M56.153 70.367 L 55.019 71.622 56.274 70.488 C 57.444 69.431,57.706 69.112,57.408 69.112 C 57.342 69.112,56.777 69.677,56.153 70.367 M50.754 79.247 L 49.228 80.888 50.869 79.362 C 51.771 78.522,52.510 77.784,52.510 77.721 C 52.510 77.429,52.173 77.721,50.754 79.247 M45.161 84.846 L 43.050 87.066 45.270 84.955 C 46.491 83.795,47.490 82.796,47.490 82.735 C 47.490 82.449,47.121 82.783,45.161 84.846 M40.125 89.286 C 39.794 90.366,39.882 90.734,40.374 90.325 C 40.673 90.077,40.823 89.720,40.707 89.532 C 40.507 89.208,40.190 89.074,40.125 89.286 M331.750 198.456 C 331.750 199.199,331.829 199.503,331.926 199.131 C 332.023 198.760,332.023 198.152,331.926 197.780 C 331.829 197.408,331.750 197.712,331.750 198.456 M331.776 207.336 C 331.776 208.504,331.848 208.982,331.937 208.398 C 332.025 207.814,332.025 206.858,331.937 206.274 C 331.848 205.690,331.776 206.168,331.776 207.336 M276.158 243.520 C 276.742 243.608,277.698 243.608,278.282 243.520 C 278.866 243.431,278.388 243.359,277.220 243.359 C 276.052 243.359,275.574 243.431,276.158 243.520 M314.383 317.181 C 314.387 318.031,314.466 318.333,314.559 317.853 C 314.651 317.372,314.648 316.677,314.551 316.308 C 314.454 315.939,314.379 316.332,314.383 317.181 " stroke="none" fill="#5c96de" fill-rule="evenodd"></path><path id="path4" d="M193.726 10.709 C 194.841 10.787,196.665 10.787,197.780 10.709 C 198.895 10.631,197.983 10.568,195.753 10.568 C 193.523 10.568,192.611 10.631,193.726 10.709 M166.892 30.397 C 167.688 30.480,168.991 30.480,169.788 30.397 C 170.584 30.314,169.932 30.246,168.340 30.246 C 166.747 30.246,166.096 30.314,166.892 30.397 M176.343 30.394 C 177.028 30.480,178.244 30.481,179.045 30.398 C 179.847 30.314,179.286 30.244,177.799 30.243 C 176.313 30.241,175.657 30.309,176.343 30.394 M302.703 86.680 C 303.423 87.423,304.099 88.031,304.206 88.031 C 304.312 88.031,303.809 87.423,303.089 86.680 C 302.368 85.936,301.692 85.328,301.586 85.328 C 301.480 85.328,301.982 85.936,302.703 86.680 M294.208 109.459 C 294.929 110.203,295.605 110.811,295.711 110.811 C 295.818 110.811,295.315 110.203,294.595 109.459 C 293.874 108.716,293.198 108.108,293.092 108.108 C 292.986 108.108,293.488 108.716,294.208 109.459 M305.019 116.322 C 305.019 116.381,306.366 117.727,308.012 119.315 L 311.004 122.201 308.118 119.208 C 305.437 116.429,305.019 116.040,305.019 116.322 M331.793 202.510 C 331.794 204.208,331.862 204.855,331.943 203.947 C 332.025 203.039,332.024 201.649,331.941 200.859 C 331.858 200.068,331.791 200.811,331.793 202.510 M388.161 202.703 C 388.161 204.295,388.229 204.947,388.312 204.151 C 388.395 203.354,388.395 202.051,388.312 201.255 C 388.229 200.458,388.161 201.110,388.161 202.703 M301.660 342.085 C 301.660 343.253,301.732 343.731,301.821 343.147 C 301.909 342.563,301.909 341.607,301.821 341.023 C 301.732 340.439,301.660 340.917,301.660 342.085 M292.002 358.880 C 292.005 359.942,292.080 360.331,292.169 359.744 C 292.258 359.157,292.255 358.288,292.164 357.813 C 292.072 357.338,291.999 357.819,292.002 358.880 " stroke="none" fill="#89b4e5" fill-rule="evenodd"></path></g></svg>